<mxfile host="app.diagrams.net" modified="2023-01-27T10:02:35.526Z" agent="5.0 (Windows NT 10.0; Win64; x64) AppleWebKit/537.36 (KHTML, like Gecko) Chrome/109.0.0.0 Safari/537.36" etag="92A_qFHwd4D_bUVoxfFI" version="20.8.12" type="github">
  <diagram name="Page-1" id="PF3J-7Q-EQc-BLYBZfNt">
    <mxGraphModel dx="880" dy="462" grid="1" gridSize="10" guides="1" tooltips="1" connect="1" arrows="1" fold="1" page="1" pageScale="1" pageWidth="850" pageHeight="1100" math="0" shadow="0">
      <root>
        <mxCell id="0" />
        <mxCell id="1" parent="0" />
        <mxCell id="tEX4fsR3dozc-LeBYAaW-1" value="" style="ellipse;shape=cloud;whiteSpace=wrap;html=1;" vertex="1" parent="1">
          <mxGeometry x="160" y="90" width="470" height="300" as="geometry" />
        </mxCell>
        <mxCell id="tEX4fsR3dozc-LeBYAaW-3" value="DB" style="strokeWidth=2;html=1;shape=mxgraph.flowchart.database;whiteSpace=wrap;" vertex="1" parent="1">
          <mxGeometry x="290" y="200" width="80" height="100" as="geometry" />
        </mxCell>
        <mxCell id="tEX4fsR3dozc-LeBYAaW-5" value="" style="edgeStyle=orthogonalEdgeStyle;rounded=0;orthogonalLoop=1;jettySize=auto;html=1;" edge="1" parent="1" source="tEX4fsR3dozc-LeBYAaW-4" target="tEX4fsR3dozc-LeBYAaW-3">
          <mxGeometry relative="1" as="geometry" />
        </mxCell>
        <mxCell id="tEX4fsR3dozc-LeBYAaW-7" value="" style="edgeStyle=orthogonalEdgeStyle;rounded=0;orthogonalLoop=1;jettySize=auto;html=1;" edge="1" parent="1" source="tEX4fsR3dozc-LeBYAaW-4" target="tEX4fsR3dozc-LeBYAaW-6">
          <mxGeometry relative="1" as="geometry" />
        </mxCell>
        <mxCell id="tEX4fsR3dozc-LeBYAaW-4" value="API" style="strokeWidth=2;html=1;shape=mxgraph.flowchart.direct_data;whiteSpace=wrap;" vertex="1" parent="1">
          <mxGeometry x="410" y="250" width="130" height="30" as="geometry" />
        </mxCell>
        <mxCell id="tEX4fsR3dozc-LeBYAaW-6" value="" style="shape=singleArrow;whiteSpace=wrap;html=1;arrowWidth=0.4;arrowSize=0.4;strokeWidth=2;" vertex="1" parent="1">
          <mxGeometry x="645" y="235" width="80" height="60" as="geometry" />
        </mxCell>
      </root>
    </mxGraphModel>
  </diagram>
</mxfile>
